<svg width="800" height="320" viewBox="0 0 800 320" xmlns="http://www.w3.org/2000/svg">
  <rect width="800" height="320" fill="#08090c"/>
  <!-- step indicator bar -->
  <rect x="16" y="16" width="768" height="36" rx="8" fill="#0e1117" stroke="#1e2535" stroke-width="1"/>
  <!-- step dots skeleton -->
  <circle cx="80" cy="34" r="10" fill="#141820"/>
  <rect x="100" y="28" width="80" height="12" rx="3" fill="#141820"/>
  <rect x="210" y="31" width="60" height="6" rx="3" fill="#1c2232"/>
  <circle cx="310" cy="34" r="10" fill="#141820"/>
  <rect x="330" y="28" width="80" height="12" rx="3" fill="#141820"/>
  <rect x="440" y="31" width="60" height="6" rx="3" fill="#1c2232"/>
  <circle cx="540" cy="34" r="10" fill="#141820"/>
  <rect x="560" y="28" width="80" height="12" rx="3" fill="#141820"/>
  <!-- main card skeleton -->
  <rect x="16" y="64" width="768" height="236" rx="12" fill="#0e1117" stroke="#1e2535" stroke-width="1"/>
  <!-- title skeleton -->
  <rect x="32" y="84" width="180" height="18" rx="4" fill="#141820"/>
  <!-- sub skeleton -->
  <rect x="32" y="110" width="280" height="12" rx="3" fill="#141820"/>
  <!-- divider -->
  <rect x="32" y="134" width="736" height="1" fill="#1e2535"/>
  <!-- trade row skeletons -->
  <rect x="32" y="148" width="24" height="24" rx="4" fill="#141820"/>
  <rect x="64" y="150" width="120" height="12" rx="3" fill="#141820"/>
  <rect x="64" y="168" width="80" height="10" rx="3" fill="#1c2232"/>
  <rect x="650" y="150" width="100" height="20" rx="4" fill="#141820"/>

  <rect x="32" y="188" width="24" height="24" rx="4" fill="#141820"/>
  <rect x="64" y="190" width="140" height="12" rx="3" fill="#141820"/>
  <rect x="64" y="208" width="90" height="10" rx="3" fill="#1c2232"/>
  <rect x="650" y="190" width="100" height="20" rx="4" fill="#141820"/>

  <rect x="32" y="228" width="24" height="24" rx="4" fill="#141820"/>
  <rect x="64" y="230" width="100" height="12" rx="3" fill="#141820"/>
  <rect x="64" y="248" width="70" height="10" rx="3" fill="#1c2232"/>
  <rect x="650" y="230" width="100" height="20" rx="4" fill="#141820"/>
  <!-- next button skeleton -->
  <rect x="660" y="272" width="108" height="32" rx="8" fill="#141820"/>
  <!-- label -->
  <text x="32" y="314" font-family="monospace" font-size="11" fill="#3d4561">Loading session data…</text>
</svg>
