<svg width="800" height="220" viewBox="0 0 800 220" xmlns="http://www.w3.org/2000/svg">
  <rect width="800" height="220" fill="#08090c"/>
  <!-- card -->
  <rect x="16" y="16" width="768" height="188" rx="12" fill="#0e1117" stroke="#1e2535" stroke-width="1"/>
  <!-- skeleton title bar -->
  <rect x="32" y="32" width="140" height="14" rx="4" fill="#141820"/>
  <!-- skeleton subtitle -->
  <rect x="32" y="54" width="90" height="10" rx="3" fill="#141820"/>
  <!-- heatmap grid skeleton: 13 cols × 7 rows -->
  <g fill="#141820">
    <!-- row 1 -->
    <rect x="32" y="80" width="52" height="18" rx="3"/><rect x="90" y="80" width="52" height="18" rx="3"/><rect x="148" y="80" width="52" height="18" rx="3"/>
    <rect x="206" y="80" width="52" height="18" rx="3"/><rect x="264" y="80" width="52" height="18" rx="3"/><rect x="322" y="80" width="52" height="18" rx="3"/>
    <rect x="380" y="80" width="52" height="18" rx="3"/><rect x="438" y="80" width="52" height="18" rx="3"/><rect x="496" y="80" width="52" height="18" rx="3"/>
    <rect x="554" y="80" width="52" height="18" rx="3"/><rect x="612" y="80" width="52" height="18" rx="3"/><rect x="670" y="80" width="52" height="18" rx="3"/>
    <rect x="728" y="80" width="40" height="18" rx="3"/>
    <!-- row 2 -->
    <rect x="32" y="104" width="52" height="18" rx="3"/><rect x="90" y="104" width="52" height="18" rx="3"/><rect x="148" y="104" width="52" height="18" rx="3"/>
    <rect x="206" y="104" width="52" height="18" rx="3"/><rect x="264" y="104" width="52" height="18" rx="3"/><rect x="322" y="104" width="52" height="18" rx="3"/>
    <rect x="380" y="104" width="52" height="18" rx="3"/><rect x="438" y="104" width="52" height="18" rx="3"/><rect x="496" y="104" width="52" height="18" rx="3"/>
    <rect x="554" y="104" width="52" height="18" rx="3"/><rect x="612" y="104" width="52" height="18" rx="3"/><rect x="670" y="104" width="52" height="18" rx="3"/>
    <rect x="728" y="104" width="40" height="18" rx="3"/>
    <!-- row 3 -->
    <rect x="32" y="128" width="52" height="18" rx="3"/><rect x="90" y="128" width="52" height="18" rx="3"/><rect x="148" y="128" width="52" height="18" rx="3"/>
    <rect x="206" y="128" width="52" height="18" rx="3"/><rect x="264" y="128" width="52" height="18" rx="3"/><rect x="322" y="128" width="52" height="18" rx="3"/>
    <rect x="380" y="128" width="52" height="18" rx="3"/><rect x="438" y="128" width="52" height="18" rx="3"/><rect x="496" y="128" width="52" height="18" rx="3"/>
    <rect x="554" y="128" width="52" height="18" rx="3"/><rect x="612" y="128" width="52" height="18" rx="3"/><rect x="670" y="128" width="52" height="18" rx="3"/>
    <rect x="728" y="128" width="40" height="18" rx="3"/>
    <!-- row 4 -->
    <rect x="32" y="152" width="52" height="18" rx="3"/><rect x="90" y="152" width="52" height="18" rx="3"/><rect x="148" y="152" width="52" height="18" rx="3"/>
    <rect x="206" y="152" width="52" height="18" rx="3"/><rect x="264" y="152" width="52" height="18" rx="3"/><rect x="322" y="152" width="52" height="18" rx="3"/>
    <rect x="380" y="152" width="52" height="18" rx="3"/><rect x="438" y="152" width="52" height="18" rx="3"/><rect x="496" y="152" width="52" height="18" rx="3"/>
    <rect x="554" y="152" width="52" height="18" rx="3"/><rect x="612" y="152" width="52" height="18" rx="3"/><rect x="670" y="152" width="52" height="18" rx="3"/>
    <rect x="728" y="152" width="40" height="18" rx="3"/>
    <!-- row 5 partial -->
    <rect x="32" y="176" width="52" height="14" rx="3"/><rect x="90" y="176" width="52" height="14" rx="3"/><rect x="148" y="176" width="52" height="14" rx="3"/>
    <rect x="206" y="176" width="52" height="14" rx="3"/><rect x="264" y="176" width="52" height="14" rx="3"/>
  </g>
  <!-- loading label -->
  <text x="32" y="210" font-family="monospace" font-size="11" fill="#3d4561">Loading heatmap…</text>
</svg>
